<svg width="44" height="44" viewBox="0 0 44 44" fill="none" xmlns="http://www.w3.org/2000/svg">
<circle cx="22" cy="22" r="22" fill="#F9F9F9"/>
<path d="M26.5875 28H17.2275V25.94L22.0075 21.02C23.0742 19.8867 23.6075 18.9533 23.6075 18.22C23.6075 17.6733 23.4342 17.2333 23.0875 16.9C22.7542 16.5667 22.3208 16.4 21.7875 16.4C20.7208 16.4 19.9408 16.9467 19.4475 18.04L17.1275 16.68C17.5542 15.7333 18.1742 15.0067 18.9875 14.5C19.8142 13.98 20.7342 13.72 21.7475 13.72C23.0142 13.72 24.1008 14.12 25.0075 14.92C25.9142 15.7067 26.3675 16.7733 26.3675 18.12C26.3675 19.5733 25.6008 21.0667 24.0675 22.6L21.3275 25.34H26.5875V28Z" fill="#1F1F1F"/>
</svg>
